<mxfile host="app.diagrams.net" modified="2023-11-27T07:05:12.320Z" agent="Mozilla/5.0 (Macintosh; Intel Mac OS X 10_15_7) AppleWebKit/537.36 (KHTML, like Gecko) Chrome/119.0.0.0 Safari/537.36" etag="WngLRRBzinnE3TMck6wX" version="22.1.4" type="github">
  <diagram name="Page-1" id="kT9_dr_BF-10qV57XZLN">
    <mxGraphModel dx="954" dy="606" grid="1" gridSize="10" guides="1" tooltips="1" connect="1" arrows="1" fold="1" page="1" pageScale="1" pageWidth="850" pageHeight="1100" math="0" shadow="0">
      <root>
        <mxCell id="0" />
        <mxCell id="1" parent="0" />
        <mxCell id="4MUZql2UYZA6WcCp4JFE-1" value="bos" style="rounded=1;whiteSpace=wrap;html=1;" vertex="1" parent="1">
          <mxGeometry x="10" y="100" width="120" height="60" as="geometry" />
        </mxCell>
        <mxCell id="4MUZql2UYZA6WcCp4JFE-3" value="kafka" style="rounded=1;whiteSpace=wrap;html=1;" vertex="1" parent="1">
          <mxGeometry x="190" y="100" width="120" height="60" as="geometry" />
        </mxCell>
        <mxCell id="4MUZql2UYZA6WcCp4JFE-4" value="调度" style="rounded=1;whiteSpace=wrap;html=1;" vertex="1" parent="1">
          <mxGeometry x="420" y="100" width="90" height="60" as="geometry" />
        </mxCell>
        <mxCell id="4MUZql2UYZA6WcCp4JFE-6" value="进行中任务表（任务粒度、db）" style="shape=cube;whiteSpace=wrap;html=1;boundedLbl=1;backgroundOutline=1;darkOpacity=0.05;darkOpacity2=0.1;" vertex="1" parent="1">
          <mxGeometry x="690" y="20" width="120" height="80" as="geometry" />
        </mxCell>
        <mxCell id="4MUZql2UYZA6WcCp4JFE-7" value="供需表(站点粒度、db)" style="shape=cube;whiteSpace=wrap;html=1;boundedLbl=1;backgroundOutline=1;darkOpacity=0.05;darkOpacity2=0.1;" vertex="1" parent="1">
          <mxGeometry x="700" y="190" width="120" height="80" as="geometry" />
        </mxCell>
        <mxCell id="4MUZql2UYZA6WcCp4JFE-9" value="" style="endArrow=classic;html=1;rounded=0;exitX=1.008;exitY=0.383;exitDx=0;exitDy=0;exitPerimeter=0;" edge="1" parent="1" source="4MUZql2UYZA6WcCp4JFE-4" target="4MUZql2UYZA6WcCp4JFE-6">
          <mxGeometry width="50" height="50" relative="1" as="geometry">
            <mxPoint x="490" y="340" as="sourcePoint" />
            <mxPoint x="540" y="290" as="targetPoint" />
          </mxGeometry>
        </mxCell>
        <mxCell id="4MUZql2UYZA6WcCp4JFE-10" value="" style="endArrow=classic;html=1;rounded=0;exitX=1;exitY=0.5;exitDx=0;exitDy=0;entryX=0;entryY=0.638;entryDx=0;entryDy=0;entryPerimeter=0;" edge="1" parent="1" source="4MUZql2UYZA6WcCp4JFE-4" target="4MUZql2UYZA6WcCp4JFE-7">
          <mxGeometry width="50" height="50" relative="1" as="geometry">
            <mxPoint x="490" y="340" as="sourcePoint" />
            <mxPoint x="540" y="290" as="targetPoint" />
          </mxGeometry>
        </mxCell>
        <mxCell id="4MUZql2UYZA6WcCp4JFE-11" value="写入" style="text;html=1;align=center;verticalAlign=middle;resizable=0;points=[];autosize=1;strokeColor=none;fillColor=none;" vertex="1" parent="1">
          <mxGeometry x="545" y="78" width="50" height="30" as="geometry" />
        </mxCell>
        <mxCell id="4MUZql2UYZA6WcCp4JFE-12" value="写入点位进行中车辆数+点位进行中任务idList" style="text;html=1;align=center;verticalAlign=middle;resizable=0;points=[];autosize=1;strokeColor=none;fillColor=none;" vertex="1" parent="1">
          <mxGeometry x="480" y="160" width="260" height="30" as="geometry" />
        </mxCell>
        <mxCell id="4MUZql2UYZA6WcCp4JFE-13" value="" style="endArrow=classic;html=1;rounded=0;exitX=1;exitY=0.5;exitDx=0;exitDy=0;entryX=0;entryY=0.5;entryDx=0;entryDy=0;" edge="1" parent="1" source="4MUZql2UYZA6WcCp4JFE-1" target="4MUZql2UYZA6WcCp4JFE-3">
          <mxGeometry width="50" height="50" relative="1" as="geometry">
            <mxPoint x="170" y="180" as="sourcePoint" />
            <mxPoint x="200" y="130" as="targetPoint" />
          </mxGeometry>
        </mxCell>
        <mxCell id="4MUZql2UYZA6WcCp4JFE-14" value="" style="endArrow=classic;html=1;rounded=0;exitX=1;exitY=0.5;exitDx=0;exitDy=0;entryX=0;entryY=0.5;entryDx=0;entryDy=0;" edge="1" parent="1" source="4MUZql2UYZA6WcCp4JFE-3" target="4MUZql2UYZA6WcCp4JFE-4">
          <mxGeometry width="50" height="50" relative="1" as="geometry">
            <mxPoint x="340" y="130" as="sourcePoint" />
            <mxPoint x="390" y="129.5" as="targetPoint" />
          </mxGeometry>
        </mxCell>
        <mxCell id="4MUZql2UYZA6WcCp4JFE-17" value="任务粒度" style="text;html=1;align=center;verticalAlign=middle;resizable=0;points=[];autosize=1;strokeColor=none;fillColor=none;" vertex="1" parent="1">
          <mxGeometry x="315" y="98" width="70" height="30" as="geometry" />
        </mxCell>
      </root>
    </mxGraphModel>
  </diagram>
</mxfile>
